<mxfile host="app.diagrams.net" modified="2023-07-20T16:13:00.969Z" agent="Mozilla/5.0 (Windows NT 10.0; Win64; x64) AppleWebKit/537.36 (KHTML, like Gecko) Chrome/114.0.0.0 Safari/537.36" version="21.6.3" etag="XQka-AwvtX3bMhbQOaHj" type="github">
  <diagram name="第 1 页" id="Gg7cxkcFaKMzYJ7Nv0kM">
    <mxGraphModel>
      <root>
        <mxCell id="0" />
        <mxCell id="1" parent="0" />
      </root>
    </mxGraphModel>
  </diagram>
</mxfile>
